<svg id="f27ab918-a570-4e94-b157-4dbd8854a2b9" data-name="Layer 1" xmlns="http://www.w3.org/2000/svg" viewBox="0 0 300 300"><defs><style>.\31 39a5a24-a0c3-43f1-bdc4-676d19d0ac42{fill:#7c71b9;}</style></defs><title>down</title><path class="139a5a24-a0c3-43f1-bdc4-676d19d0ac42" d="M7,98c-.36-6.16,3-11.8,7.65-16.75s9.28-9.49,14.15-14c9.31-8.58,22.14-8.79,31.9-.66,1.61,1.34,3.08,2.84,4.56,4.32q41.32,41.29,82.55,82.67c3.18,3.2,5.06,3.47,8.38.12,27.75-28.06,55.72-55.9,83.54-83.9,11.79-11.87,27.21-11.71,38.55.53,3.67,4,7.68,7.6,11.42,11.5,9.82,10.23,9.71,24.05-.34,34.11Q229.77,175.6,170.09,235.21c-11.21,11.2-24.89,11.49-36.12.32Q74.36,176.23,15.06,116.62C10.31,111.84,6.89,106.17,7,98Z"/></svg>