<svg id="Layer_1" data-name="Layer 1" xmlns="http://www.w3.org/2000/svg" viewBox="0 0 300 300"><defs><style>.cls-1{fill:#66687a;}</style></defs><title>import</title><path class="cls-1" d="M77.91,94.11v28.63c-4.9,0-9.4-.21-13.88,0-8.87.51-14,5.73-14,14.65q-.14,56.38,0,112.76c0,9.74,5.11,15.12,14.88,15.51,8.62.34,17.27.1,25.9.11q69.71,0,139.43,0c15.24,0,19.54-4.28,19.54-19.36q0-52.57,0-105.14c0-14.27-4.28-18.55-18.55-18.63-2.78,0-5.56,0-9.08,0V94.81c25.06-3.56,44.26,5.38,52.49,25.17a50.3,50.3,0,0,1,3.72,18.43c.34,37.08.25,74.16.14,111.24-.08,25.89-18.31,44.25-44,44.3q-84.57.14-169.14,0c-25.72,0-44-18.41-44.07-44.24-.11-36.32,0-72.63,0-109C21.26,112,39,94.18,67.71,94.11Z"/><path class="cls-1" d="M132.51,65.27c-4.54,5.1-8.81,10.49-13.7,15.24-6.71,6.52-15.9,6.54-21.75.63C91,75,91.4,66.63,98.22,59.53,114.92,42.14,131.67,24.8,149.79,6c18.61,19.24,35.8,36.85,52.78,54.67,6,6.32,5.83,14.73.13,20.48a14.74,14.74,0,0,1-20.6.34c-5.31-5-9.79-10.93-14.63-16.45l-2.89,1.4q0,3.82,0,7.63,0,51.79,0,103.57c0,9.12-4.4,14.71-12,15.93-10,1.6-17.28-4.91-17.31-15.94-.09-34.52,0-69,0-103.57q0-3.66,0-7.33Z"/></svg>