<svg id="3a1bf94a-42c3-447c-8ec6-4a2bacade3e5" data-name="Layer 1" xmlns="http://www.w3.org/2000/svg" viewBox="0 0 300 300"><defs><style>.d54ccfe4-1ea0-4116-a0cd-6930c45b11e0{fill:#1758ff;}</style></defs><title>custom</title><path class="d54ccfe4-1ea0-4116-a0cd-6930c45b11e0" d="M4.55,238.71q0-87.53,0-175.05c.46-2.5.84-5,1.4-7.5C12.81,26.16,37.7,5.83,68.4,5.73c54.46-.17,108.91-.08,163.37,0A61.25,61.25,0,0,1,268.5,17.36c18,13.1,27,31,27,53.25q.11,80.55,0,161.1c0,1.51,0,3-.13,4.54-2.45,27.39-16.3,46.43-42,56.47-5,2-10.58,2.67-15.88,4H62.52c-.82-.19-1.62-.44-2.45-.57-25-4-42.31-17.67-51.48-41.26C6.6,249.73,5.86,244.11,4.55,238.71ZM150.34,23.87c-27.18,0-54.37-.07-81.55,0-25.89.09-45.94,19.82-46,45.59q-.21,81.69,0,163.39c.06,25.65,20,45.53,45.71,45.59q81.55.18,163.1,0c25.81-.06,45.69-20,45.74-45.86q.15-81.41-.08-162.82a48.44,48.44,0,0,0-2.44-15c-6.36-18.93-23.3-30.81-43.49-30.86C204.33,23.82,177.33,23.87,150.34,23.87Z"/><path class="d54ccfe4-1ea0-4116-a0cd-6930c45b11e0" d="M65,96.41V78.6H231.73V96.41Z"/><path class="d54ccfe4-1ea0-4116-a0cd-6930c45b11e0" d="M65,160.08V142.24H231.61v17.85Z"/><path class="d54ccfe4-1ea0-4116-a0cd-6930c45b11e0" d="M231.77,206v17.83H65V206Z"/></svg>