<svg id="e39158ec-8681-4fd1-9ec3-4be92eb00fbf" data-name="Layer 1" xmlns="http://www.w3.org/2000/svg" viewBox="0 0 300 300"><defs><style>.\30 917861a-c670-41e6-bcd4-d53185b8375a{fill:#4fba6e;}.ef6ffb72-eb63-4b16-a8b2-e3d3033b072c{fill:#4eb96c;}</style></defs><title>issues</title><path class="0917861a-c670-41e6-bcd4-d53185b8375a" d="M9.14,152.6c0-82,67.66-144.89,145.69-143.45C232.4,10.58,296.52,73.78,295.51,154A143,143,0,0,1,149.9,295.53C72.79,294.26,9.67,231.71,9.14,152.6Zm271.24-.42c0-69.71-57.42-128-126.14-128-72.33,0-130,56.59-130.07,127.63s57.48,128.57,128.2,128.58C222.73,280.39,280.38,222.66,280.37,152.18Z"/><path class="ef6ffb72-eb63-4b16-a8b2-e3d3033b072c" d="M131.12,79.14c-.49-15.06,8-25.22,21.14-25.3,11.51-.06,22.11,10.1,21.65,21.66-.88,21.78-2.31,43.54-3.49,65.31-.61,11.3-1,22.62-1.85,33.91-.76,10.12-7.05,16.22-16.09,16.27-8.36,0-14.67-4.85-15.47-13.19-1.25-12.91-1.85-25.89-2.6-38.84C133.25,119,132.21,99.09,131.12,79.14Z"/><path class="ef6ffb72-eb63-4b16-a8b2-e3d3033b072c" d="M151.89,251.15c-11.67-.16-20.13-9.11-19.9-21a20.24,20.24,0,0,1,20.65-20,20.51,20.51,0,1,1-.75,41Z"/></svg>