<svg id="60c20fe4-aad6-44cf-ae69-8d0c95e49510" data-name="ae7922f0-e5ea-42d8-80d5-c1e3c9eb13e4" xmlns="http://www.w3.org/2000/svg" viewBox="0 0 300 300"><defs><style>.e5e7d3c2-3350-40b7-8674-70fee90ac4ca{fill:#ffb14a;}</style></defs><title>stackOverflow</title><path class="e5e7d3c2-3350-40b7-8674-70fee90ac4ca" d="M145.61,297.13h-114c-2.77,0-3.33-.75-3.32-3.38q.14-48.94,0-97.88c0-2.68.68-3.42,3.35-3.33,6.68.21,13.36.15,20,0,2.16,0,2.61.68,2.61,2.77q0,36.14-.11,72.29c0,2.77.77,3.31,3.38,3.29q88-.11,176,0c3.35,0,3.35,0,3.35-3.46V196.21c0-3.47,0-3.47,3.6-3.47h20c1.67,0,2.3.44,2.3,2.21v100c0,2.25-1.08,2.31-2.77,2.3H186.21Z"/><path class="e5e7d3c2-3350-40b7-8674-70fee90ac4ca" d="M209,211.52l-29.46-6.16Q132.8,195.6,86,185.89c-2.52-.53-3.14-1.26-2.52-3.85,1.66-6.82,3-13.71,4.37-20.6.32-1.69.86-1.87,2.41-1.55,14.41,3.06,28.86,6,43.28,9l80.12,16.74c1.83.37,2.31.94,1.9,2.77-1.59,7.11-3.07,14.23-4.56,21.37C210.84,210.84,210.89,212.06,209,211.52Z"/><path class="e5e7d3c2-3350-40b7-8674-70fee90ac4ca" d="M111.4,100.77c.47.21,1,.43,1.59.69q56.88,26.71,113.75,53.24c1.87.87,2,1.66,1.15,3.35-3,6.34-6,12.7-8.76,19.16-.87,2-1.72,2-3.44,1.18q-50.56-23.65-101.14-47.2c-4.3-2-8.58-4-12.91-6-1.3-.58-1.69-1.11-1-2.55,3.17-6.85,6.21-13.75,9.32-20.62C110.18,101.48,110.28,100.59,111.4,100.77Z"/><path class="e5e7d3c2-3350-40b7-8674-70fee90ac4ca" d="M275,109.09c-.43.39-.77.77-1.19,1.08-6.06,4.51-12.19,8.95-18.18,13.56-1.62,1.24-2,.19-2.77-.79l-25-33.66-49.8-67.09c-1.38-1.77-1.2-2.53.58-3.8,5.81-4.15,11.49-8.41,17.15-12.71,1.26-1,1.9-1,2.89.39q37.56,50.86,75.35,101.66C274.36,108.13,274.64,108.58,275,109.09Z"/><path class="e5e7d3c2-3350-40b7-8674-70fee90ac4ca" d="M249.19,130c-.35.47-.65.9-1,1.3-4.66,5.62-9.36,11.19-14,16.85-1,1.26-1.63,1.3-2.89.25q-48.41-40.34-96.83-80.56c-1.49-1.24-1.63-2-.32-3.47,4.58-5.39,9.1-10.93,13.54-16.46,1.08-1.38,1.72-1.38,3.06-.29q37.35,31.17,74.77,62.25l22.13,18.38C248.25,128.77,249,129.17,249.19,130Z"/><path class="e5e7d3c2-3350-40b7-8674-70fee90ac4ca" d="M145.32,244.56H83.07c-2.34,0-3-.59-2.9-2.92q.25-10.28,0-20.57c0-2.17.68-2.57,2.67-2.57q62.66.08,125.31,0c2,0,2.52.53,2.48,2.49q-.18,10.55,0,21.11c0,2-.58,2.48-2.52,2.46Q176.71,244.52,145.32,244.56Z"/></svg>