<svg id="60aba6fd-385f-4f9a-b04f-13e0a8a2fafc" data-name="Layer 1" xmlns="http://www.w3.org/2000/svg" viewBox="0 0 300 300"><defs><style>.\34 744c841-dc98-4f62-8e0d-c5c661b1e7c1{fill:#fe0000;}.d5842674-dc83-41cd-8351-03e98896dfcc{fill:#fedada;}</style></defs><title>youtube</title><path class="4744c841-dc98-4f62-8e0d-c5c661b1e7c1" d="M122,49h7.62c.17.3.34.86.51.86q18.54.06,37.09,0c.17,0,.34-.56.51-.86h7.62c1.23,2.11,3.25,1,4.87,1,25.36.92,50.75,1.26,76,4.31,17.54,2.12,30.29,13.32,33.54,30.54,8.1,42.85,7.36,85.84.77,128.75-3.19,20.75-15.07,31.1-35.91,33.7-16.21,2-32.48,3-48.79,3.47-53.15,1.54-106.26,1.8-159.24-3.65C28.45,245.3,16,234.9,12.3,218.14a173.3,173.3,0,0,1-3.5-22c-3.15-35.14-3-70.23,2-105.25C14,68.17,25.8,56.88,48.72,54.31c23.28-2.61,46.64-3.44,70-4.25C119.84,50,121.35,50.75,122,49Zm76.7,101.8-75.39-43.27v86.58Z"/><path class="d5842674-dc83-41cd-8351-03e98896dfcc" d="M167.69,49c-.17.3-.34.86-.51.86q-18.54.06-37.09,0c-.17,0-.34-.56-.51-.86Z"/></svg>