<svg id="Layer_1" data-name="Layer 1" xmlns="http://www.w3.org/2000/svg" viewBox="0 0 150.46 250.41"><title>deviantart</title><path d="M76.61,276.26c0-16.8-.07-33,.1-49.1,0-1.8,1.24-3.64,2.1-5.36q22.06-44.23,44.17-88.43c1-2,2-4.12,3.35-7.06H76.9V76.18H87.44c19.33,0,38.66-.14,58,.11,4.46.06,6.9-1.06,8.9-5.34,6.19-13.24,13.17-26.12,19.39-39.35,2.07-4.4,4.67-5.73,9.36-5.63,14.21.3,28.44.11,43.48.11,0,8.17-.62,16,.12,23.61,1.76,18.11-2.85,34.2-11.63,50.09-12.44,22.51-23.26,45.9-34.76,68.93-1,2.06-2,4.16-3.35,7.08h49.18v50.37h-6c-20.89,0-41.78.13-62.67-.1-4.26,0-6.56,1.08-8.45,5.09-6.42,13.57-13.41,26.87-20,40.36-1.62,3.33-3.42,4.94-7.47,4.87C106.74,276.09,91.95,276.26,76.61,276.26Z" transform="translate(-76.59 -25.97)"/></svg>