<svg id="Layer_1" data-name="Layer 1" xmlns="http://www.w3.org/2000/svg" viewBox="0 0 142.72 264"><title>facebook</title><path d="M218.59,19.5c3.19,1.27,4.37,3.63,4.34,7-.11,12.37,0,24.75,0,37.12,0,5.14-1.84,6.88-7,6.93-8.76.09-17.53.05-26.28.41-4.74.19-9.33,1.58-11.66,6.27a18.05,18.05,0,0,0-2,7.36c-.22,9.78-.09,19.58-.09,29.77h38.3c5.3,0,7.13,1.83,7.13,7.12q0,20.11,0,40.21c0,5-1.85,6.82-6.86,6.82q-17.79,0-35.57,0h-3.09v3.24q0,51.94,0,103.89c0,6.1-1.7,7.8-7.8,7.8H127.19c-5.36,0-7.15-1.77-7.15-7.09q0-52.2,0-104.4v-3.44h-2.91q-15.08,0-30.16,0c-4.82,0-6.72-1.87-6.73-6.7q0-20.37,0-40.73c0-4.77,2-6.71,6.76-6.72,10,0,19.94,0,29.9,0H120c0-1.11,0-2,0-2.94,0-10.65-.25-21.32.2-32,.65-15.15,5.19-29,15.46-40.56,8.59-9.66,19.5-15.25,32-17.85,3-.62,6.06-1.07,9.09-1.59Z" transform="translate(-80.22 -19.5)"/></svg>