<svg id="Layer_1" data-name="Layer 1" xmlns="http://www.w3.org/2000/svg" viewBox="0 0 273.99 273.9"><title>linkedin</title><path d="M112.44,287.51V105.36H166.6v20.82l1.47.59c1.47-1.76,3-3.51,4.41-5.28,25.62-31,81.27-29,103.41,3.74,7.1,10.52,11.54,22.36,11.68,35,.47,41.51.35,83,.44,124.54a21.94,21.94,0,0,1-.39,2.76H232.26c0-2.53,0-5.1,0-7.68-.36-32.51-.43-65-1.2-97.53-.55-23.39-19.24-36.42-41.43-29.63-12.73,3.9-21.76,15.76-22,30.11-.59,32.71-.84,65.43-1.22,98.14,0,2,0,4,0,6.53Z" transform="translate(-14.01 -13.66)"/><path d="M19.9,105.35H75.53V287.48H19.9Z" transform="translate(-14.01 -13.66)"/><path d="M80.57,47C80.67,66,65.89,81,47,80.92,29,80.86,14,65.64,14,47.44c0-18.61,14.54-33.73,32.48-33.78C66.07,13.6,80.46,27.66,80.57,47Z" transform="translate(-14.01 -13.66)"/></svg>