<svg id="Layer_1" data-name="Layer 1" xmlns="http://www.w3.org/2000/svg" viewBox="0 0 250.08 250.08"><title>slack</title><path d="M218,209.6c-10.54,0-21.09.06-31.63,0-15.41-.11-26.65-10.82-26.56-25.21.09-14.15,11.25-24.78,26.32-24.84q32.22-.12,64.44,0c14.9.08,26.16,11.1,26,25.18-.14,13.92-11.18,24.58-25.78,24.88H218Z" transform="translate(-26.52 -26.13)"/><path d="M84.5,142.83c-10.54,0-21.09.07-31.63,0-15-.12-26.23-10.74-26.34-24.87s11.12-25.08,26-25.17q32.51-.18,65,0c14.64.1,25.63,10.91,25.71,24.86.08,14.18-11.05,25-26,25.17C106.37,142.91,95.44,142.83,84.5,142.83Z" transform="translate(-26.52 -26.13)"/><path d="M143.32,217.6c0,10.93.09,21.85,0,32.78-.15,14.62-10.79,25.65-24.73,25.84s-25.1-10.8-25.26-25.32q-.37-33.07,0-66.14c.17-14.52,11.41-25.41,25.32-25.22s24.52,11.23,24.66,25.87C143.41,196.13,143.32,206.86,143.32,217.6Z" transform="translate(-26.52 -26.13)"/><path d="M159.62,84.42c0-10.92-.1-21.85,0-32.77.16-14.5,11.09-25.57,25-25.52,13.71.05,24.64,10.71,24.83,25.06q.43,33.35,0,66.71c-.2,14.32-11.23,25-24.94,24.92-13.95,0-24.7-11-24.85-25.62C159.53,106.27,159.62,95.35,159.62,84.42Z" transform="translate(-26.52 -26.13)"/><path d="M143.26,75.94c-9.87,0-19.26.71-28.49-.17C102,74.56,92.54,62.53,93.3,50a25.24,25.24,0,0,1,25-23.83,24.88,24.88,0,0,1,24.85,23.27C143.62,58,143.26,66.57,143.26,75.94Z" transform="translate(-26.52 -26.13)"/><path d="M226.64,142.82c0-10.55-.87-20.54.23-30.3,1.28-11.35,12.55-19.76,24.21-19.75a25.22,25.22,0,0,1,24.55,20.32c3,15.81-7.72,29.27-23.89,29.7C243.41,143,235.07,142.82,226.64,142.82Z" transform="translate(-26.52 -26.13)"/><path d="M76.38,159.61c0,9.79.61,19-.15,28.05-1.09,13-13.18,22.67-26,21.88A25.25,25.25,0,0,1,26.53,185a24.81,24.81,0,0,1,22.84-25.24C58.09,159.13,66.89,159.61,76.38,159.61Z" transform="translate(-26.52 -26.13)"/><path d="M159.87,226.41c9.9,0,19.28-.71,28.51.17,12.75,1.21,22.22,13.27,21.44,25.82a25.23,25.23,0,0,1-25,23.81c-13,0-24.16-10.23-24.83-23.3C159.51,244.35,159.87,235.75,159.87,226.41Z" transform="translate(-26.52 -26.13)"/></svg>