<svg id="Layer_1" data-name="Layer 1" xmlns="http://www.w3.org/2000/svg" viewBox="0 0 300 300"><title>whatsapp</title><path d="M152.62,283.93c-21.85-.13-41.26-4.4-59.54-13.43a9.72,9.72,0,0,0-7.36-.77c-19.94,5.33-39.92,10.5-59.9,15.7-6.56,1.7-10.56-2.38-8.79-8.91,5.37-19.82,10.78-39.63,16-59.48a7.52,7.52,0,0,0-.47-4.94A132.23,132.23,0,0,1,17.85,139,128.21,128.21,0,0,1,40.17,76c15.71-22.79,36.27-39.72,62.2-49.8a128.36,128.36,0,0,1,65.12-7.91c44.6,6.2,78.68,28.94,99.93,68.32,25.19,46.69,23,93.72-6.25,138-22.88,34.69-56.2,54-97.67,58.65C159.41,283.77,155.26,283.79,152.62,283.93ZM31.74,270.56c1.38-.28,2.16-.4,2.92-.6,17.07-4.48,34.16-8.91,51.2-13.5a11.93,11.93,0,0,1,9.21,1,117.05,117.05,0,0,0,44.26,13.08c28.56,2.6,55-4,78.58-20,28.24-19.2,45.6-45.9,51.63-79.68a119.92,119.92,0,0,0-31.95-103.9,117.16,117.16,0,0,0-42.05-28.43,121.08,121.08,0,0,0-122.81,20A120.45,120.45,0,0,0,31.26,167a119.23,119.23,0,0,0,14,42.08,10.54,10.54,0,0,1,1,8.6C44,225.44,41.9,233.22,39.77,241,37.13,250.64,34.53,260.3,31.74,270.56Z"/><path d="M126,141.65c8.9,15.19,21.21,26.5,37.54,33.36,1.65.69,2.6.5,3.66-.89q3.87-5,7.94-9.93c3.54-4.25,7.83-5.7,13-3.67,5.85,2.3,11.47,5.17,17.17,7.83,2.43,1.13,4.77,2.47,7.24,3.53,7.85,3.36,9.41,7.27,8.79,15.85-1.52,21-23.24,31.6-40.18,30.16-11.36-1-21.65-5.27-31.8-9.84-21.11-9.51-37.06-25.26-51-43.3-6.66-8.61-12.83-17.46-16.2-28C76.63,119.5,81.25,101.23,94.2,90a18,18,0,0,1,11.9-4.53c1.45,0,2.9.16,4.34,0,7.42-.6,11.83,3.25,14.5,9.71,2.76,6.68,5.17,13.53,8.39,20,4.39,8.8,1.9,15.92-4.21,22.56-.91,1-1.78,2-2.65,3A5.71,5.71,0,0,0,126,141.65Zm58.59,30.85c-3.46,4.28-6.56,8.29-9.84,12.13-3.81,4.45-7.86,5.45-13.31,3.29a91.6,91.6,0,0,1-46.92-40.55c-3-5.28-2.41-9.5,1.76-14.1,1.73-1.91,3.39-3.9,5-5.94a5.59,5.59,0,0,0,.65-6.3c-2.74-6.12-5.22-12.37-7.74-18.59-.89-2.21-1.39-4.72-4.71-4.07-2.26.44-5.16.09-6.69,1.38-8.93,7.53-11.92,17.3-9.49,28.69,2,9.41,7,17.34,12.54,25,16.74,23.43,37.64,41.28,65.78,49.65,9.52,2.83,18.59,3,27.52-2.08a18,18,0,0,0,9.6-15.23,2.7,2.7,0,0,0-1.19-2.12C199.93,179.9,192.3,176.24,184.56,172.49Z"/></svg>