<svg id="Layer_1" data-name="Layer 1" xmlns="http://www.w3.org/2000/svg" viewBox="0 0 214.03 225"><title>Chef</title><path d="M146,38h11a12.52,12.52,0,0,0,2.34.78c15.71,2,28.12,9.69,37.38,22.36,2,2.75,4,3.6,7.31,3.76,22.61,1.08,39.34,11.89,48.83,32.28,9.57,20.57,7,40.46-6.83,58.61-7.6,10-18,16-30,19.68v5.66c0,23.63-.1,47.26.09,70.9,0,4.72-1.12,8.38-5.11,11H92c-4.08-2.56-5.23-6.27-5.1-11,.27-10,.08-20,.08-30V175.53L82.58,174A56,56,0,0,1,99.45,64.88c3-.07,4.81-.89,6.49-3.36,4.94-7.29,11.3-13.31,19.37-16.8C131.93,41.85,139.08,40.19,146,38Zm-1,182.26c0-1.83,0-3.46,0-5.09q0-20,0-40c0-5.6,2.45-9,6.38-9.1s6.58,3.4,6.6,8.91c0,13.33,0,26.65,0,40,0,1.76,0,3.52,0,5.1h15.15c0-15.37-.09-30.35.1-45.33,0-2.3.78-5.16,2.28-6.69,1.25-1.27,4.94-2,6.07-1.13,2,1.61,4.11,4.59,4.18,7.05.39,13.65.19,27.31.19,41,0,1.74,0,3.48,0,5.07h14.35a6.36,6.36,0,0,0,.44-1.37q.06-24,.1-48c0-6.15,1.8-8.26,7.85-9.51,22.59-4.65,36.88-23.7,34.12-45.49C240.13,94.31,222,79.15,199.44,80.19c-6.39.29-9.88-1.72-13.14-7.18C171,47.37,134.08,46.3,117.85,71.32c-4.43,6.84-8.8,10.27-16.74,8.7a9.64,9.64,0,0,0-2,0c-24.48.42-43.85,24.63-38.49,48.47,4,18,15.23,29.05,33.48,32.67,6.3,1.25,8,3.31,8,9.85q0,16,0,32c0,5.62,0,11.24,0,17.17H117c0-1.95,0-3.74,0-5.52q0-19.74,0-39.48c0-5.64,2.42-9,6.36-9.08s6.44,3.36,6.45,9q0,20,0,40c0,1.74,0,3.49,0,5.21Zm-42.58,27.3h98.14V233.49H102.42Z" transform="translate(-44.53 -38)"/></svg>