<svg id="Layer_1" data-name="Layer 1" xmlns="http://www.w3.org/2000/svg" viewBox="0 0 223.88 225"><title>Codepen</title><path d="M153,263h-5c-2.69-1.59-5.48-3-8.07-4.79-31.37-21.26-62.67-42.64-94.12-63.79-5.11-3.44-7.29-7.62-7.23-13.7.18-20,.23-40,0-59.92-.08-6.52,2.26-10.9,7.66-14.51C69.72,90.6,93,74.6,116.44,58.81c10.45-7,21-13.88,31.56-20.81h5c2,1.11,4.16,2.07,6.06,3.36,32,21.74,64,43.59,96.14,65.24,5.08,3.43,7.28,7.63,7.23,13.72q-.28,30.21,0,60.42c.06,6.1-2.18,10.29-7.27,13.7-24.45,16.37-48.72,33-73.11,49.44C172.44,250.36,162.69,256.63,153,263ZM57.36,118c12.42,7.9,24.13,15.44,36,22.73,1.07.66,3.45.2,4.7-.58,13.84-8.61,27.63-17.29,41.25-26.23a8.4,8.4,0,0,0,3.22-5.83c.36-8.31.15-16.65.15-25,0-7.26,0-14.52,0-23ZM159.12,60.65a7.48,7.48,0,0,0-.73,1.86c0,15.66-.12,31.31.06,47,0,1.42,1.4,3.32,2.7,4.16q20.94,13.55,42.14,26.69a5.93,5.93,0,0,0,5.11-.07c7-4.15,13.81-8.64,20.68-13L243.58,118Zm-16.7,180.08c.11-2.49.24-3.94.24-5.38,0-13.31-.11-26.63.1-39.93.05-3.31-1.13-5-3.83-6.72C126.51,181,114,173.41,102,165c-5.27-3.69-8.85-3.37-13.85.16-9.3,6.56-19.11,12.4-29.24,18.88ZM242,184c-12.1-7.69-23.52-15-35.09-22.13-.88-.54-3,.36-4.27,1.13-13.67,8.57-27.34,17.16-40.83,26a8.3,8.3,0,0,0-3.32,5.79c-.3,13.82-.2,27.66-.19,41.49a42,42,0,0,0,.49,4.29Zm-51.12-32.48c-10.93-7-21.61-13.13-31.5-20.35-6.44-4.69-11.24-4.82-17.74-.07-10,7.29-20.74,13.48-31.62,20.43,13.18,8.38,25.74,16.45,38.43,24.32a5,5,0,0,0,4.33-.16C165.35,167.85,177.78,159.87,190.92,151.49Zm-110.5,0L54.69,135.21v32.64Zm165.82,16.31V135.22L220.62,151.5Z" transform="translate(-38.55 -38)"/></svg>