<svg id="Layer_1" data-name="Layer 1" xmlns="http://www.w3.org/2000/svg" viewBox="0 0 224.48 221.86"><title>Codewars</title><path d="M264,165v6c-.68,1.12-1.12,2.56-2.09,3.29-3.46,2.6-4.14,5.76-3.7,10a12,12,0,0,1-2.47,7.82c-3.9,5-8.46,9.4-12.71,14.1a9,9,0,0,0-2.26,3.23c-.89,3.25-3.07,3.56-6,3.9-2.26.26-5.47,1.59-6.3,3.36-2.83,6-9.46,8-13,13.07a3.76,3.76,0,0,1-2.63,1.25c-3.44.15-4.26,2.26-4.84,5.2-1.55,7.86-6.54,11.93-14.4,12.9-2,.24-4.63,1.54-5.4,3.12-2.57,5.3-6.78,6.71-12,6-4-.56-7.23-.63-10.9,2.11-4.26,3.19-23.22,0-27.49-3.45a19.77,19.77,0,0,0-3.81-2c-3-1.49-6.47-2.46-9-4.57-4.54-3.87-9.05-7.21-15.31-7.58-2.24-.13-4.4-1.31-6.63-1.85-2.05-.49-4.22-1.27-6.23-1-5.93.71-11.11.05-15.49-4.69a15.49,15.49,0,0,0-7.19-3.92c-5.88-1.56-9.91-4.5-10.62-10.94-.12-1.12-.45-2.93-1.13-3.17-7.93-2.84-9.73-9-10.32-16.6-.43-5.61-2.71-11.08-4-16.65a3.77,3.77,0,0,1,1-3.19c5-3.77,1.88-5.93-1.95-8.31,0-6,.09-12.17-.1-18.33,0-.83-1.37-1.7-2.22-2.41-5-4.2-7.07-11-3.78-16.6,2.44-4.17,2.53-7.9,1.34-12.18s.69-7.59,3.93-10.52c1.52-1.38,3.13-3.68,3.11-5.55-.05-6.42,5.31-9.54,8.68-13.06,4-4.15,9.24-6.58,7.11-12.22l12.15.42c3.08.11,4.81-1.19,5.78-4.29.77-2.44,2-5.26,3.93-6.68,4.11-3,7.69-6,9.2-11.25.53-1.86,3.13-3.26,5-4.57,3.25-2.29,7.5-3.68,9.85-6.63,4.7-5.92,10.37-5.42,16.2-3.66,3.13.95,5.17.54,6.91-1.88,2.87-4,6-3.57,10.43-2.23,5.26,1.6,11,1.51,17.36,2.24,1.78,1.2,5.46,2.57,7.4,5.22,4.12,5.63,9.17,7.76,15.86,6.88.94-.12,1.94.44,2.93.5,3.55.22,7.1.56,10.65.49,5.62-.11,11.26-.15,14.78,5.13,2.16,3.25,4.84,4.17,8.44,3.8,5.12-.53,9,1.82,10.8,6.35,1.44,3.61,2.09,7,7,7.32,1.07.06,2.19,2.73,2.94,4.35,1.43,3.11,2.71,6.3,3.88,9.52a39,39,0,0,1,1.69,6.25c.43,2.33.56,4.71.83,7.06.32,2.76.73,5.51,1,8.27.23,2.52-.68,5.88.63,7.41,3.07,3.59,3,7.49,3.33,11.65.16,2.12.84,5,2.34,6.09,6.13,4.58,6.76,10.45,5.81,17.36C262.05,159.29,263.42,162.2,264,165ZM162.34,151.8c1.34,3.73,2.46,6.93,3.65,10.1.95,2.52,2.1,5,2.94,7.52.55,1.68.65,3.49,1.05,5.23.93,4.08,4.18,8.42-1.49,11.72-.44.25-.5,1.57-.37,2.32,1.1,6.16,0,11.49-5.12,15.68-.89.74-1.27,2.32-1.5,3.58-1.05,5.53-4.45,9-9.17,11.77a9.25,9.25,0,0,0-3.78,5.18c-2.18,8.28-7,11.84-15.39,10.79a18.19,18.19,0,0,0-3.06.12l-.41,1.45c3.65,1.42,7.19,3.4,11,4.11,4.25.81,8.88,1.3,13.06.46,6.94-1.38,14.57-1.18,20.25-6.68.55-.54,2.12.09,2.89-.37A35,35,0,0,0,182,231c2.74-2.39,5.42-4.86,8-7.43,1.26-1.26,3.21-2.85,3.16-4.24a18.87,18.87,0,0,1,5-13.67c1-1.19.65-3.7.65-5.61,0-2.92-1.24-6.31-.14-8.65,1.69-3.61.09-5.48-1-8.65a67.57,67.57,0,0,0-8.94-17.52c-2.55-3.65-8.2-7.54-13.22-6.48C174.79,151,168.29,153,162.34,151.8Zm45.13-26.39c-4.08-.83-8.45-3.06-12.08-2.19-9.35,2.23-18.41,5.73-27.49,9a9.43,9.43,0,0,0-4,3.59c-1.65,2.38-.35,3.79,2.17,4,2.71.24,5.57-.32,8.16.32,6,1.49,12,3.38,17.84,5.39.94.32,1.25,2.22,2.11,3.17,1.08,1.19,2.28,2.81,3.66,3.08,6.82,1.33,8,2.7,9.18,9.65a7.77,7.77,0,0,0,3.63,4.84c5.86,3.1,7.61,6.21,6.8,12.84-.16,1.33.43,3.47,1.4,4.1,5,3.24,6.27,7.38,4.23,12.87a3.29,3.29,0,0,0,.72,3,4,4,0,0,0,3.53.43,13.77,13.77,0,0,0,3.63-3.82,62.37,62.37,0,0,0,5-7.67c2.52-4.86,7.57-8.8,4.52-15.69-1-2.37.65-5.94,1.05-9,.14-1.09.63-2.84.14-3.21-4.34-3.26-3.5-7.86-3.68-12.29-.05-1.27-1-3.5-1.72-3.57-6.24-.64-8.53-5.95-12-9.78-4.38-4.87-10.47-6.54-16.39-3.8Zm-67.58,28.25-1.26-2c-3,0-6,.33-8.85-.06-8.09-1.08-16.74-.91-22-9.14-.64-1-2.91-1.11-4.46-1.36-4.31-.68-7.37-2.36-8.2-7.25a8.44,8.44,0,0,0-3.63-5.3c-5.6-3.16-7.66-7.45-6.22-13.71.33-1.46.17-3.83-.76-4.65-3.83-3.37-4.65-7.42-4.07-12.17A3.55,3.55,0,0,0,79,95.22a2.74,2.74,0,0,0-2.62.63c-2.86,4.18-5.57,8.46-8.22,12.78a23.13,23.13,0,0,0-3.08,6.08,75.6,75.6,0,0,0-2.68,14.87c-.06,1.4,3.36,3,5.32,4.55-.21.26-.53.59-.79,1-3.68,5.16-2.65,10.38,2,14a16.15,16.15,0,0,1,5.45,7.18c1,2.93,2.53,4,5,5.38,6.57,3.6,12.53,7.76,20.52,8.83,5.82.78,11.1-.33,16.26-1.48,5.43-1.21,10.62-4.22,15.42-7.22C134.86,159.79,137.18,156.42,139.89,153.66Zm12.61,6.4-1.83-.5c-.32,6.5-8.86,6.3-9.25,13-.07,1.21-2.63,2.26-4,3.4-1,.8-2.36,1.43-2.82,2.47-1.72,3.88-4.85,5.12-8.73,5.57-1.91.22-4.51.38-5.49,1.61-3.6,4.53-8.14,3.61-12.79,3.22a16.8,16.8,0,0,0-4.95.68c-2.74.62-5.43,1.78-8.19,2-4.38.34-6.84-3.5-10.19-5.22-3-1.53-7.52,0-11.37.09-1,0-2-.57-2.9-.42s-2.35,1.12-2.29,1.33c1.14,3.61-1.77,7.83,1.88,11.13,2.06,1.87,3.48,4.42,5.39,6.48a13.58,13.58,0,0,0,3.86,2.82c3.3,1.64,8.14,2.17,9.76,4.77,3.31,5.33,9,3.34,12.93,7l1.6-7.61c1.56,2.22,2.95,5.76,4.21,5.72,5.82-.19,12.15,1.64,17.3-2.69,3.22-2.7,6.34-5.33,11-4.83.88.09,2.66-1,2.75-1.73.71-5.56,4.34-8.61,8.8-11.13a2.47,2.47,0,0,0,1-1.69c.58-5.18,7-8.92,3.75-15.06a1.67,1.67,0,0,1,.28-1.43c2.74-3.49,2.17-7.19,1.16-11.13C152.64,165.41,152.74,162.69,152.5,160.06Zm-2.66-28.41c6.36-6.56,12.06-12.45,17.78-18.33a5.69,5.69,0,0,1,1.93-1.55c6.24-2.16,12.5-4.29,18.8-6.28,1-.33,2.3.13,3.44,0a24.79,24.79,0,0,0,6.08-.8c5.57-1.94,10.81-3.05,15.88,1.49,1.19,1.06,3.62.84,5.5,1,2.38.2,4.81,0,7.17.33s4.66,1.09,7.89,1.88c-1.49-5.57-2.66-10.06-3.92-14.53-.1-.35-.83-.48-1.17-.82-2.15-2.15-4.18-4.43-6.44-6.46-1.22-1.1-2.8-2.49-4.23-2.51-3.61-.05-6-1.4-7.59-4.59-.42-.85-1.31-2.28-1.72-2.2-6.43,1.33-12-.4-18.12-2.68-3.3-1.24-8.43,2.32-12.71,3.79C174,81,169.54,82.59,165.1,84.2c-.92.33-2.36.61-2.58,1.25-1.78,5.2-3.65,10.2-10,11.4-.13,4.5-3.13,8.14-4.14,12-1.64,6.25-.49,13.25-.3,19.93C148.15,129.84,149.33,130.85,149.84,131.65Zm-3.27-75.34c-6.44,1.4-12.92-1.22-16.22,5.91-.56,1.22-3.68,1.1-5.42,2a25,25,0,0,0-6.1,4c-2.47,2.38-5.29,4.87-6.56,7.9a68.62,68.62,0,0,0-4.53,16.12c-.57,3.75,1.24,7.63-2.93,10.75-2.7,2-2.84,5.44-.33,8.41a28,28,0,0,1,2.71,4.07c3,5.17,5.93,10.39,8.95,15.55.3.51,1,.78,1.63,1.08,5.61,2.93,11.18,5.93,16.88,8.68,1,.51,2.59,0,3.9-.06-.16-1.32.07-2.88-.57-3.92-1.55-2.53-3.63-4.73-5.24-7.24-.84-1.3-2-3.37-1.5-4.36,1.71-3.5,1.24-6.55-.09-10-.55-1.42.44-3.44.77-5.18s1.42-3.73,1-5.23c-1.44-4.69.93-7.85,3.31-11.34a11.49,11.49,0,0,0,1.79-6c.09-4.51,1.36-8.65,5.38-10.52,4.33-2,7.3-4.41,8.43-9.23.75-3.2,2.35-6.2,3.57-9.29Z" transform="translate(-39.52 -39.78)"/></svg>