<svg id="Layer_1" data-name="Layer 1" xmlns="http://www.w3.org/2000/svg" viewBox="0 0 177.9 190.55"><title>CSS-Tricks</title><path d="M162.69,167.19c.6,5.46,1.14,10.54,1.71,15.62,1.38,12.17,2.86,24.32,4.12,36.5.86,8.29-2.95,15.57-9.54,18.91a18.86,18.86,0,0,1-20.67-2.38c-5.25-4.63-6.48-10.66-5.71-17.38,1.92-16.7,3.75-33.42,5.61-50.13a8.39,8.39,0,0,0-.08-1.11c-.87.6-1.58,1.05-2.26,1.55-13.43,9.85-26.83,19.74-40.32,29.52-4.65,3.37-9.51,6.46-15.65,6.07-7.64-.49-13.07-4.45-16.32-11.17s-2.93-13.53,2.17-19.2a30.14,30.14,0,0,1,9.68-7.21C91.18,159.65,107.12,153,123,146.09c.72-.31,1.42-.67,2.48-1.17L92.87,130.45c-6.34-2.81-12.74-5.47-19-8.45-6.81-3.24-11.6-8.25-12.15-16.19-.52-7.35,2.69-13,8.73-17S83,84,89.46,87.61c4.32,2.41,8.23,5.58,12.25,8.51q17.22,12.55,34.38,25.18c.57.42,1.17.81,2.18,1.51-.38-3.63-.69-6.82-1.05-10q-2.36-20.8-4.75-41.6c-1-8.33,2.67-15.9,9.45-19.44a19,19,0,0,1,20.86,2.43c4.84,4.34,6.37,10,5.69,16.21-1.81,16.72-3.73,33.42-5.6,50.14-.07.61,0,1.23,0,2.22,4.7-3.43,9.16-6.68,13.62-9.95,10.14-7.44,20.29-14.86,30.39-22.35,6.41-4.75,13.31-6.68,20.88-3.35,7.3,3.21,11.31,9,11.56,17,.26,8.18-4,13.91-11.1,17.27-10.9,5.17-22,9.89-33,14.79-6.41,2.85-12.82,5.67-19.66,8.7,1,.51,1.73.87,2.43,1.17q23.92,10.34,47.84,20.67c7.73,3.36,12.93,8.75,13.52,17.6.93,13.85-14.52,24.51-26.83,18.08-6.24-3.26-11.88-7.73-17.64-11.87-10.07-7.25-20-14.66-30-22C164.25,168.14,163.62,167.79,162.69,167.19Z" transform="translate(-61.46 -49.7)"/></svg>