<svg id="Layer_1" data-name="Layer 1" xmlns="http://www.w3.org/2000/svg" viewBox="0 0 213.98 116.07"><title>GFG</title><path d="M83.88,155.54h39.5c1.64,0,3.35.13,3.43-2.24.52-15.41-1.21-30.35-10.74-43.17-8-10.72-22.72-14.93-34-10.08-8.6,3.7-13.58,10.75-16.86,19.16A115.36,115.36,0,0,0,61.3,131c-.74,2.74-2.68,1.75-4.28,1.86-1.85.12-1.77-1.31-1.76-2.54.08-11.1.16-22.2.34-33.29,0-.81.85-2.3,1.25-2.28a12.33,12.33,0,0,1,5.19,1c1.3.69,2,3.05,3.17,3.28s2.83-1.19,4.24-1.92c20.35-10.53,48.81-4.8,63.21,15.49,8.3,11.7,11.84,24.55,11.77,38.66,0,3.88,3.38,5.92,6.89,4,.69-.37,1-1.86,1.07-2.87.66-6.15.52-12.48,1.94-18.45,5.83-24.46,25.84-43.46,54.48-41.94a47.13,47.13,0,0,1,20.56,6.2c2.2,1.21,3.65,1.25,4.83-1.33a4.74,4.74,0,0,1,6.12-2.2,2.17,2.17,0,0,1,1,1.65c.14,11.47.23,22.95.2,34.42a2.64,2.64,0,0,1-1.62,2c-1.64.2-3.68.84-4.43-1.68-1-3.51-2-7-3.24-10.49C229,111.29,223.73,103.64,214,100a28.9,28.9,0,0,0-31.59,8.14c-7,8-10.1,17.71-11.51,28A135.28,135.28,0,0,0,169.84,151c-.11,4.39.25,4.55,4.65,4.55h77.31c3.34,0,3.87.48,3.32,3.74-.14.85-1.26,1.76-2.14,2.21s-2,.28-3,.49c-5.25,1.05-7.87,3.65-8,9-.21,8.27,0,16.55.16,24.81.06,2.34-.62,3.43-2.88,4.29-8.26,3.15-16.45,6.71-25.33,7.4-12.83,1-25.56,1-36.89-6.86a54.49,54.49,0,0,1-23.23-35.3c-.65-3.24-1.91-4.32-4.95-3.85a4.39,4.39,0,0,1-1.41,0c-2.66-.46-3.71.62-4.21,3.32-2.25,12.31-7.79,23-17.34,31.18-8.61,7.38-18.39,11.71-30.2,12-13.73.32-26.38-3-38.82-8.19-1.77-.73-2.09-1.8-2-3.46.19-6.86.3-13.72.44-20.58q0-1.27,0-2.54c-.24-8-3.22-11.22-11.3-11.6-2.87-.13-2.36-1.95-2.55-3.68-.25-2.21,1-2.41,2.72-2.4,13.26,0,26.52,0,39.79,0ZM171,161.35a10.24,10.24,0,0,0,0,2.21c1.72,5.84,2.83,12,5.34,17.45,9.25,20.21,29.75,25.28,46.87,16.53a6.15,6.15,0,0,0,3.75-5.74c.17-5.92.53-11.83.55-17.75,0-7.85-3-11.51-10.8-11.89-12.29-.6-24.6-.59-36.91-.81C176.95,161.31,174.06,161.35,171,161.35Zm-44.63.52a28,28,0,0,0-2.78-.33c-13.26,0-26.52-.06-39.78.1a34,34,0,0,0-8,1.43c-3.65,1-5.92,3.33-6,7.25-.06,7.51-.1,15,.18,22.53a5.76,5.76,0,0,0,2.62,4c10.29,5.91,21.1,6.7,31.81,1.56,9.55-4.58,14.69-13.21,18.21-22.77C124.3,171.26,125.14,166.63,126.39,161.87Z" transform="translate(-41.34 -91.94)"/></svg>