<svg id="Layer_1" data-name="Layer 1" xmlns="http://www.w3.org/2000/svg" viewBox="0 0 203.58 225"><title>HackerRank</title><path d="M153,263h-5c-10-4.7-20.48-8.69-30-14.25-19.65-11.44-38.85-23.66-58.17-35.67A18.05,18.05,0,0,1,51,198.82c-3.15-30.55-2.71-61.09-.69-91.7.67-10.18,5-17.25,13.45-22.26.43-.25.83-.55,1.24-.83,26.3-17.81,53.57-33.87,83-46h5c9.9,4.63,20.21,8.57,29.62,14,19.69,11.45,38.93,23.65,58.28,35.67A18.08,18.08,0,0,1,250,101.86c3.17,30.76,2.83,61.5.66,92.32-.7,10-5,16.9-13.26,21.88-.43.26-.84.54-1.25.82C209.78,234.74,182.48,250.84,153,263ZM112.44,103.54c0,1.69,0,3.33,0,5,0,25.83-.05,51.66.13,77.49.11,15.74-2.7,13,14,13.36,3.71.09,5-1.36,5-5-.14-9.83-.06-19.66,0-29.5,0-1.75.17-3.49.26-5.1h37.43v38.35a19.17,19.17,0,0,0-3.83,0,36,36,0,0,0-4.36,1.55c.65,1.4,1,3.11,2,4.15,4,4,8.27,7.75,12.21,11.82,2.33,2.4,4.12,2.74,6.63.23,3.42-3.41,7.28-6.36,10.69-9.77,1.85-1.85,3.14-4.25,4.69-6.4-2.45-.59-4.9-1.16-7.34-1.77a7.17,7.17,0,0,1-1.26-.74c0-1.38,0-3,0-4.64,0-25.83,0-51.66-.13-77.49-.11-15.83,2.63-13.1-13.88-13.5-4-.1-5.23,1.64-5.11,5.39.18,6.16,0,12.33,0,18.5,0,4.79,0,9.58,0,14.61H131.88V102.87a18.53,18.53,0,0,0,3.81,0,35.13,35.13,0,0,0,4.34-1.59c-.66-1.4-1-3.1-2-4.14-4.09-4.15-8.47-8-12.59-12.14-2.06-2.06-3.66-2.3-5.87-.15C116,88.28,112,91.4,108.44,94.88a57.19,57.19,0,0,0-4.77,6l7.58,2.17C111.41,103.08,111.55,103.15,112.44,103.54Z" transform="translate(-48.71 -38)"/></svg>