<svg id="Layer_1" data-name="Layer 1" xmlns="http://www.w3.org/2000/svg" viewBox="0 0 218.65 218.56"><title>insta</title><path d="M94.68,41H208.95c1.12.19,2.24.42,3.36.57,27.27,3.63,48.59,27.55,48.73,55.08.16,31.42.07,62.85,0,94.27,0,6.54.15,13.15-.63,19.62-2.77,23.11-20.65,42.5-43.37,47.51-2.78.61-5.62,1-8.43,1.49H95c-1.18-.19-2.35-.41-3.53-.57-27.26-3.52-48.75-27.49-48.89-54.95-.16-31.48-.07-63,0-94.44,0-6.6-.16-13.26.64-19.78C46,66.81,63.86,47.53,86.56,42.5,89.24,41.9,92,41.52,94.68,41ZM242.56,150.4q0-13,0-26.07c0-8.69,0-17.38,0-26.07-.12-21.81-16.94-38.5-38.71-38.49q-52.14,0-104.28,0A38,38,0,0,0,61.27,98q0,52.22,0,104.44C61.26,224.11,78,241,99.71,241q52.14.08,104.28,0a38.68,38.68,0,0,0,14.92-2.87c14.53-6,23.63-19.83,23.65-36Q242.59,176.31,242.56,150.4Z" transform="translate(-42.48 -41.03)"/><path d="M152,96a54.38,54.38,0,1,1-54.44,54.26A54.39,54.39,0,0,1,152,96Zm37.73,54.43a37.78,37.78,0,1,0-37.89,37.74A37.81,37.81,0,0,0,189.69,150.45Z" transform="translate(-42.48 -41.03)"/><path d="M212.42,77.36A12.54,12.54,0,1,1,199.71,89.7,12.53,12.53,0,0,1,212.42,77.36Z" transform="translate(-42.48 -41.03)"/></svg>