<svg id="Layer_1" data-name="Layer 1" xmlns="http://www.w3.org/2000/svg" viewBox="0 0 186.5 280"><title>keep</title><path d="M114.49,290V271.27h-19c0-3,0-5.19,0-7.39,0-26.75-.08-53.5.09-80.25,0-3.89-1.21-6.3-4.15-8.91-29.55-26.26-40.43-59.14-29.5-97C73,39.46,99.9,17.24,139.56,11a30,30,0,0,0,3.55-1h16.18c10.29,2.91,21.16,4.55,30.77,8.94,62.13,28.41,73.22,112,20.91,155.77-3.06,2.56-4,5.16-4,9,.15,26.33.08,52.66.08,79v8.14H187.91V290Zm73.35-112.29c1.84-10.08,1.84-10.08,7.57-14.37,28-21,38-57.45,24.35-89.3S173.15,23.75,138.52,30C107.73,35.46,87.3,54,79.23,84c-8,29.75.64,55.56,23.66,76.23,5.46,4.9,13.92,7.56,10.77,17.48Zm-73.78,37.13h74.2V197h-74.2Zm74.11,19.61H114.11v17.83h74.06Z" transform="translate(-57.77 -10)"/></svg>