<svg id="Layer_1" data-name="Layer 1" xmlns="http://www.w3.org/2000/svg" viewBox="0 0 283 283.88"><title>lucidchart</title><path d="M150.89,9.29C170.81,9.34,186,24.74,186.09,45c.08,20.82-15.21,36.63-35.6,36.83-39.83.38-71.37,32.17-70,71.71,1.24,36,28.16,61.94,58.45,66,4,.54,8.12,1.47,12.09,1.15,15.6-1.25,32.27,10.05,34.93,30.11A36.55,36.55,0,0,1,159.5,290.6c-22.77,6.29-46.17-11.32-46.05-35.63.19-37.34-31.11-68.37-68.3-68.74-19-.19-34.08-13.91-36-32.74-1.82-18,11.15-35.08,29.63-38.52,6.49-1.21,13.17-1.32,19.67-2.5,32.37-5.87,56.39-34.55,56.42-67.09C114.91,24.33,130,9.24,150.89,9.29Z" transform="translate(-9 -8.01)"/><path d="M255.9,80.57c-18.76,1.76-37-15.64-36.65-36.29C219.63,23.92,235.26,8,255.67,8S291.31,23.85,292,44.37C292.62,63.85,274.72,82.11,255.9,80.57Z" transform="translate(-9 -8.01)"/><path d="M254.65,219.45c21,0,36.29,15.15,36.66,36.44.33,19.26-17,36.6-36.91,36-21-.66-35.95-14.8-36.08-36.56C218.18,231.81,237.34,218.1,254.65,219.45Z" transform="translate(-9 -8.01)"/></svg>