<svg id="Layer_1" data-name="Layer 1" xmlns="http://www.w3.org/2000/svg" viewBox="0 0 73.86 112.38"><title>OnlineGDB</title><path d="M139.26,160.21c-7.6,0-14.71.25-21.79-.13-2.66-.14-7.09-1.32-7.45-2.81-.58-2.43.87-6,2.62-8.19,4.88-6.08,10.54-11.54,15.46-17.59,1.6-2,1.89-5,2.78-7.57,3.48,2.61,4.55-.79,6.14-2.56,7.43-8.29,14.7-16.73,22.25-24.91,1.35-1.46,3.71-2,5.61-2.94.44,2.26,1.79,4.81,1.17,6.73-3.8,11.81-8,23.48-12.13,35.2-.27.76-.5,1.54-.94,2.91,1.92.1,3.48.25,5.05.26,6.83,0,13.66-.12,20.48.09,4.8.15,6.52,2.75,4.26,6.27-1.7,2.64-3.6,5.42-6.1,7.17s-.85,4.78-4,6.6c-4.22,2.47-7.25,7.05-10.59,10.9-9.53,11-18.87,22.19-28.54,33.07-1.48,1.67-4.31,2.14-6.52,3.16-.24-2.62-1.33-5.52-.58-7.82,3.85-11.83,8.16-23.5,12.3-35.24A25,25,0,0,0,139.26,160.21Z" transform="translate(-109.89 -93.52)"/></svg>