<svg id="Layer_1" data-name="Layer 1" xmlns="http://www.w3.org/2000/svg" viewBox="0 0 234.84 274.88"><title>overleaf</title><path d="M268.84,20.92c-15.31,18.19-29.71,36.66-45.56,53.77-17.59,19-40,23-64.59,16.52-3.81-1-7.55-2.26-11.31-3.43a21.38,21.38,0,0,1-2.58-1.41c26.51-19.59,55.7-33.49,83.79-49.78a22.27,22.27,0,0,0-4.22.35c-36.51,10.13-71.29,24.14-102.21,46.49-23.37,16.89-42.88,37.12-53.82,64.47-14.78,37-6.68,72,22,95.17,33.76,27.24,85.81,11.25,100-29.69,13.55-39-13.32-83.83-58.66-85.45-17.37-.62-32.81,5.66-46.33,17.26,1.93-3.19,3.75-6.45,5.81-9.55a73.89,73.89,0,0,1,7-9.56c6.82-7.36,14-14.39,20.91-21.66,7.21-7.57,15.57-9.38,25.77-7.1,40.4,9,67.48,32.44,77.72,72.95,13.28,52.56-21.29,103.89-71.87,115.35-55.31,12.52-109.65-25.88-116-82.13-3.86-34.38,7.52-64.25,29.39-90,9.21-10.84,21.12-19.36,31.67-29.08,1.71-1.57,3.77-3.85,3.89-5.91,1.49-27,17.4-43,40.66-53.16,25.54-11.17,52.65-13.3,80-11.84,14.66.78,29.2,3.72,43.78,5.79A25.5,25.5,0,0,1,268.84,20.92Z" transform="translate(-34 -13.12)"/></svg>