<svg id="Layer_1" data-name="Layer 1" xmlns="http://www.w3.org/2000/svg" viewBox="0 0 215.83 216.12"><title>Plus</title><path d="M124.62,132c0-1.25,0-2.16,0-3.06.16-20.08.27-40.16.51-60.23,0-4,.09-8.08,2.39-11.72,4.75-7.49,11.4-11,20.33-10.72s17.14,6.36,19,15.21a69.16,69.16,0,0,1,1.24,13.41c.14,18,.07,36,.07,54.06,0,.91,0,1.81,0,3.06h2.78c21,.11,42,.16,63,.35a19.9,19.9,0,0,1,19.61,15.3c4.06,16.77-7.17,27.92-21.12,28.11-20.38.27-40.77.17-61.15.22h-3.1c0,1,0,1.88,0,2.75-.15,18.93-.28,37.87-.5,56.8,0,3.2-.52,6.38-.75,9.58-.8,11.18-13.91,19-23.72,16.92-6.2-1.29-11.35-4.21-14.74-9.56a17,17,0,0,1-2.82-7.79c-.57-11.74-.8-23.49-1-35.24-.14-10.23,0-20.46,0-30.69,0-.83,0-1.65,0-2.77h-2.86c-20.84-.12-41.68-.2-62.53-.4A20.49,20.49,0,0,1,39,158.17c-2-11.45,2.83-20,13.57-24.52a22,22,0,0,1,8.83-1.73c20.08.09,40.16,0,60.24,0Z" transform="translate(-38.54 -46.21)"/></svg>