<svg id="Layer_1" data-name="Layer 1" xmlns="http://www.w3.org/2000/svg" viewBox="0 0 158.54 258.24"><title>scotch</title><path d="M94,21.52H207.9c.41,6.72,1,13.29,1.19,19.86.69,22.93,6.06,44.92,12.33,66.85a306.61,306.61,0,0,1,8,37.25c2.87,18.55-2.7,35.25-14.19,49.73-5.47,6.9-12.21,12.8-18.57,19-1.63,1.58-2.06,2.67-1,4.75,3.7,7.5,7.24,15.09,10.8,22.66,2.61,5.56,4,11.42,2.52,17.48-2.08,8.64-8.13,13.81-16.38,15.84A170.83,170.83,0,0,1,169,278.83a193.38,193.38,0,0,1-49.65-1.58,65.31,65.31,0,0,1-11.62-2.83c-12.81-4.53-18.47-15.56-13.91-28.35,2.92-8.2,7.12-15.95,10.79-23.87,2.81-6.05,2.84-6-2.13-10.21-10.44-8.8-19.13-19-24.93-31.48-7-15.09-7.16-30.86-3.63-46.61,3.43-15.33,8-30.4,12-45.62A231.34,231.34,0,0,0,93.09,37.2C93.25,32.1,93.65,27,94,21.52Zm56.52,248.71c11.86-1.31,23.62-2,35.12-4,14-2.52,16.94-9.61,10.7-22.47-3.43-7.08-6.86-14.16-10.16-21.3-3.19-6.91-2.25-10.6,3.46-15.52,3.78-3.26,7.63-6.49,11.11-10.06,13.14-13.5,21.12-29.31,18.87-48.57A219.16,219.16,0,0,0,213,115.68c-4.71-17.1-10-34-12.09-51.72-1.16-9.66-1.67-19.4-2.6-29.09-.09-.89-1.18-1.69-1.8-2.54-.52.93-1.54,1.9-1.47,2.77,1,12.06,1.23,24.31,3.62,36.11,3.6,17.83,8.75,35.34,13.25,53,2.72,10.68,5.1,21.47,4.37,32.55C215,176.27,204.6,191,189.5,202.06,157.56,225.41,112.68,215,93,180.5c-5.55-9.72-8.56-20.07-7.21-31.21a179.06,179.06,0,0,1,4.85-26.84c6-21.4,12.61-42.64,14.77-64.89.74-7.58,1-15.2,1.36-22.82,0-.78-1-1.6-1.48-2.41-.63.72-1.54,1.35-1.81,2.18a12.3,12.3,0,0,0-.19,3.35,262.2,262.2,0,0,1-9.13,59.48C90.15,112.16,86,127,83,142c-3.15,15.82-.42,31.14,9.58,44.1,6,7.74,13.36,14.42,20.37,21.31,4.7,4.61,5.79,8,3.22,14-1.17,2.76-2.53,5.43-3.76,8.17-3.13,6.94-6.69,13.72-9.2,20.87-2.27,6.45.69,11.55,7,14.14a19.9,19.9,0,0,0,5,1.53C127,267.55,138.73,268.87,150.47,270.22Zm-2.2-118.6c6.87,7.52,12.87,14.35,19.18,20.88a41.66,41.66,0,0,0,8.78,6.87c7.76,4.55,14.43,3.28,21.09-2.8,12.91-11.77,11.57-35.8,6-45.7-3.22-5.71-8.13-9.11-14.8-7.78-4.29.85-9,2.2-12.32,4.81C166.6,135.38,157.61,143.61,148.27,151.62Zm-.54,1.13c-7.84-8.51-22.59-14.6-33.1-13.77-6.18.49-11.63,2.72-15.66,7.69-8,9.87-3.7,22.53,8.65,25a21,21,0,0,0,8.15-.07C128.48,169,138,161,147.74,152.75Z" transform="translate(-71.67 -21.52)"/></svg>