<svg id="Layer_1" data-name="Layer 1" xmlns="http://www.w3.org/2000/svg" viewBox="0 0 145.43 177.11"><title>Sitepoint</title><path d="M144.13,61.44l18.1,20c-9.65,10.54-19.92,21.89-30.35,33.09-3.62,3.89-7.67,7.39-11.48,11.11-4.06,4-4.14,6.42.11,10.47q13.57,12.9,27.38,25.54c7.3,6.67,7.41,8,.23,15-4,4-8.14,7.86-12.23,11.78a13.6,13.6,0,0,1-1.64,1.09c-2.61-2.39-5.3-4.8-7.92-7.27-14.52-13.71-29.1-27.37-43.52-41.18-7.4-7.08-7.34-13.37,0-20.55q29-28.22,58.08-56.31C141.74,63.44,142.65,62.72,144.13,61.44Z" transform="translate(-77.29 -61.44)"/><path d="M156,238.56l-18.78-20.39c7.78-8.41,16-17.55,24.51-26.4,5.65-5.88,11.73-11.35,17.59-17,4.56-4.43,4.63-6.65-.15-11.16-9.44-8.92-19-17.72-28.54-26.53-5.09-4.69-5.24-7.27-.42-12,5-4.87,10-9.68,15.41-14.84,6.44,6,12.68,11.69,18.82,17.5,11.26,10.64,22.54,21.26,33.65,32.05,6.19,6,6.19,12.91.12,18.81q-29.74,28.91-59.62,57.68C158,236.85,157.32,237.37,156,238.56Z" transform="translate(-77.29 -61.44)"/></svg>