<svg id="Layer_1" data-name="Layer 1" xmlns="http://www.w3.org/2000/svg" viewBox="0 0 290.08 214.73"><title>W3C</title><path d="M5,55.67c6,0,11.19-.19,16.32.14,1.15.07,2.89,1.8,3.16,3,5.13,23.65,10.09,47.33,15.06,71,3.7,17.62,7.35,35.24,11.06,52.85A12,12,0,0,0,52,185.29a12.62,12.62,0,0,0,1.19-2.35Q62,141.37,70.68,99.78a13.27,13.27,0,0,0-.32-5.22C68,83.29,65.54,72,63.14,60.79c-.33-1.53-.55-3.09-.91-5.15,5.83,0,11.13-.22,16.38.17,1.18.09,2.89,2.17,3.19,3.59,5.75,26.69,11.32,53.42,16.93,80.14q4.5,21.45,9,42.89a29.93,29.93,0,0,0,1.64,3.91c.71-2.46,1.12-3.62,1.37-4.8Q121,132.81,131.27,84.07c1.73-8.23,3.5-16.46,5-24.73.53-2.89,1.75-3.79,4.67-3.77q33,.19,66,0c3.6,0,4.2,1.2,4.47,4.55.78,9.76-4.46,17.58-7.77,26-6.17,15.65-12.86,31.09-19.33,46.62-.74,1.78-1.67,3.44.91,4.8,14.09,7.41,20.61,20.31,24.27,34.87,5.61,22.27,5.13,44.51-2.28,66.34-3.79,11.19-9.23,21.6-19.91,27.86-11.37,6.66-26.26,4.41-35.94-7-7.46-8.77-11.64-19.09-14.51-30a4.06,4.06,0,0,1,1.26-3.52c3.93-2.57,8.07-4.81,12.53-7.39,1.17,3,1.89,5.86,3.38,8.29,3,4.84,5.68,10.18,9.76,13.94,6.9,6.34,14.78,4.9,20.08-2.83,5.57-8.12,7.9-17.42,8.74-27.1,1.07-12.3.85-24.51-3.94-36.18q-6.81-16.61-24.8-16.42c-1.33,0-2.66,0-4-.08a20.18,20.18,0,0,1-2.52-.65c.7-5,.47-10.48,2.3-15.16,7.64-19.51,15.92-38.77,23.94-58.12a23.11,23.11,0,0,0,.68-2.7c-1.63-.16-3-.4-4.35-.4-7.68,0-15.38.32-23-.15-4.83-.3-6.59,1.89-7.46,6-2.78,13.13-5.69,26.24-8.47,39.37Q128.71,184.73,116.45,243c-1.88,8.91-3.88,17.8-5.82,26.69l-1.16.07L81.26,138.47H79.74l-28,131.1-1.38.11Z" transform="translate(-4.96 -55.57)"/><path d="M280.4,83.69c1.61-4.56,3.19-9.13,4.84-13.68a85.22,85.22,0,0,1,5.93-13.65,69.35,69.35,0,0,0,1.14,8.31c3,11.53,1.1,22.38-4,33-2,4.09-3.3,8.48-5.36,13.86-1-2.08-1.58-3.25-2.14-4.44-3.16-6.72-6.79-13.08-12.75-17.83-5.72-4.56-12.11-4.93-17.87-.48-7.54,5.82-11.66,14-14.56,22.78-6.25,18.88-8,38.34-6.87,58.12.08,1.39.13,2.79.2,4.18l-1.24.2c-1.09-5.53-2.47-11-3.21-16.61-3.18-24.3-2.1-48.32,5.65-71.77,2.8-8.47,6.47-16.51,13-22.86,6.77-6.59,14.34-7.38,21.27-.93,4.63,4.31,7.91,10.1,11.58,15.38,1.38,2,2.15,4.41,3.2,6.64Z" transform="translate(-4.96 -55.57)"/><path d="M291.71,211.73c1.59,8.91,6.21,17.67.7,26.46-4.75,7.58-8.8,15.87-14.77,22.37-12,13-26.78,12.24-38.69-1-6.89-7.68-11.62-16.7-15.13-26.32-2.61-7.17-4.77-14.5-7.12-21.76l1.14-.47c.95,2,2,4,2.82,6a68.32,68.32,0,0,0,15.18,23.68c11.58,11.79,26.67,12.18,37.73-.1,6.12-6.79,10.45-15.19,15.46-22.95A42.35,42.35,0,0,0,291.71,211.73Z" transform="translate(-4.96 -55.57)"/></svg>