<svg id="Layer_1" data-name="Layer 1" xmlns="http://www.w3.org/2000/svg" viewBox="0 0 119.19 84.06"><title>W3S</title><path d="M203.78,146.74c9.69,12.82,10.47,24.3,2.81,34-7,8.84-21.35,12.19-32.42,6.21-4.72-2.55-8.53-7.53-11.48-12.22-1.34-2.13-.34-8.58.9-9,4.09-1.29,9.48-2.89,11.76,3.52,2.43,6.83,8.19,9.1,13.89,6.68,3.69-1.57,7.47-6.64,8.18-10.68,1-6-3.41-9.67-9.53-11.56a11.12,11.12,0,0,1-6.32-6.46c-1.47-4.82,2.55-5.71,6.34-7.54,3.51-1.7,7.48-6.1,7.81-9.64.28-3-3.84-8.69-6.8-9.28-3.48-.7-8,2.53-11.7,4.61-1.94,1.09-3,4.54-4.83,4.88-3,.55-7,.33-9.23-1.33-1.27-.93-.6-5.69.39-8.27,3.67-9.56,11.57-14.1,21.22-14.74,9.35-.62,17.49,2.93,22.43,11.41s5,17.33-.93,25.7C205.44,144.19,204.72,145.33,203.78,146.74Z" transform="translate(-92.56 -105.92)"/><path d="M137,153.24c-9.33,1.75-16.37,4-23.47,4.18-10.5.32-18.59-6.48-20.8-16.65-.57-2.6.36-7.45,2-8.22,3.51-1.63,8.23-2.16,10.12,3.45,2,6,6.27,9.14,12.54,8.62,6.64-.55,9.38-5.23,10-11.29.46-4.71,3.45-6.59,7.3-5.46,2.41.71,4.31,3.6,6.12,5.77,2.95,3.53,4.94,9.11,8.6,10.49,5.58,2.12,9.79-2.32,11.66-7.82,2.23-6.57,7.56-5.13,11.57-3.7,1.5.53,2.46,6.15,1.69,8.89C170.24,156.14,150.42,164.22,137,153.24Z" transform="translate(-92.56 -105.92)"/></svg>