<svg id="70f40cc6-ba17-416a-8087-969c857c53a9" data-name="Layer 1" xmlns="http://www.w3.org/2000/svg" viewBox="0 0 300 300"><defs><style>.\36 c48287d-64e1-4ae9-8b66-0e98ca3f9b37{fill:#b43c3c;}</style></defs><title>cross</title><path class="6c48287d-64e1-4ae9-8b66-0e98ca3f9b37" d="M22.29,5h4.54C31.46,7.73,36.9,9.64,40.6,13.31c34.66,34.28,69,68.85,103.46,103.35,2,2,3.84,4,6,6.25,2.43-2.29,4.67-4.3,6.8-6.42q48.72-48.68,97.37-97.43c5.88-5.91,11.61-11.81,20-14.06h3.4c1.4.48,2.78,1,4.2,1.43A20.3,20.3,0,0,1,296.9,26c.2,7.24-3.27,12.52-8.13,17.37q-51,50.89-101.92,101.85a26.86,26.86,0,0,1-4.72,4c-3.17,1.94-3.45,3.58-.3,5.87a54.76,54.76,0,0,1,6.32,5.65q41.41,41.22,82.76,82.49c7.09,7.08,14.37,14,21,21.51,6.25,7.09,6.67,15.43,2.35,23.77-3.93,7.59-12,12-21,9.81A32.28,32.28,0,0,1,259,290.11C224.37,256,190.1,221.51,155.72,187.16c-1.95-1.94-4.07-3.71-6.1-5.56-2.65,3-4.76,5.6-7.13,8Q92.39,239.76,42.21,289.87a50,50,0,0,1-5,4.6c-12.47,9.45-29.25,3.4-33-11.81A22.44,22.44,0,0,0,3,279.58v-3.4c2.41-8.72,8.66-14.62,14.8-20.72q41-40.76,81.75-81.78c7.13-7.2,13.64-15,20.57-22.7-1.75-1.62-4.84-4.32-7.75-7.22q-46.53-46.46-93-92.93C12.24,43.77,4.93,37,3,26.56V25.42C4.89,18.3,7.27,11.49,14.69,8.14,17.19,7,19.75,6,22.29,5Z"/></svg>